<svg xmlns="http://www.w3.org/2000/svg" viewBox="0 0 1202.27 254.3">
    <g class="logo-icon">
        <path class="logo-icon-tr" d="M125.31 112.82h.94c10.74-.03 20.59-3.95 28-10.55a39.59 39.59 0 0011.95-19.35c-15.92-5.95-27.25-21.29-27.25-39.28 0-23.16 18.77-41.93 41.93-41.93s41.93 18.77 41.93 41.93c0 17.09-10.23 31.8-24.9 38.32-2.39 17.52-10.82 32.6-23.04 43.48-12.86 11.46-29.96 18.25-48.62 18.31h-.94v-30.93zm55.58-89.55c-11.25 0-20.36 9.12-20.36 20.36S169.64 64 180.89 64s20.36-9.12 20.36-20.36-9.12-20.37-20.36-20.37z"/>
        <path class="logo-icon-br" d="M179.86 254.3c-23.16 0-41.93-18.77-41.93-41.93 0-17.63 10.89-32.72 26.31-38.92-1.47-6.54-4.08-12.49-8.51-18.41 9.83-2.52 19.09-7.86 28.24-14.72 6.57 9.49 10.56 21.4 12.11 33.37 15.1 6.34 25.71 21.27 25.71 38.67 0 23.17-18.78 41.94-41.93 41.94z"/>
        <path class="logo-icon-bl" d="M57.42 173.4c15.49 6.16 26.43 21.29 26.43 38.97 0 23.16-18.77 41.93-41.93 41.93C18.77 254.3 0 235.53 0 212.37c0-17.41 10.61-32.34 25.72-38.68 1.68-9.9 4.82-18.54 9.05-26.04 5.84-10.33 13.62-18.29 22.46-24.19 14.2-9.48 27.54-11.69 40.53-11.78v31.07c-8.17.2-16.11 1.62-23.31 6.42-5.08 3.39-9.5 7.88-12.76 13.64-1.75 3.11-3.2 6.63-4.27 10.59zm-15.49 18.61c-11.25 0-20.36 9.12-20.36 20.36 0 11.25 9.12 20.36 20.36 20.36 11.25 0 20.36-9.12 20.36-20.36s-9.12-20.36-20.36-20.36z"/>
        <path class="logo-icon-tl" d="M42.61 0c23.16 0 41.93 18.77 41.93 41.93 0 17.63-10.89 32.72-26.31 38.92 1.47 6.54 4.08 12.49 8.51 18.41-9.83 2.52-19.09 7.86-28.24 14.72-6.57-9.49-10.56-21.4-12.11-33.37C11.29 74.26.68 59.33.68 41.93.68 18.77 19.46 0 42.61 0z"/>
    </g>
    <path class="logo-text" d="M431.61 29.44c-3.82-10.11-18.97-11.7-24.69-2.46-4.82 7.1-1.96 18.19 6.29 21.28h.01c11.63 4.75 23.23-7.34 18.39-18.82zm-102.76 86.31c-16.31-8.12-31.71-15.79-37.93-28.76-6.55-13.67-2.5-28 10.83-38.34 15.2-11.79 51.65-3.95 57.9.37l6.62 4.57 2.64-26.78-3.89-1.04c-15.68-4.19-45.7-9.49-70.62 2.09-12.81 5.95-22.41 16.26-27.76 29.79-8.69 22.01.02 46.51 21.68 60.97 5.6 3.74 12.61 7.31 20.03 11.09 22.25 11.34 47.48 24.19 45.89 46.6-1.35 19.12-17.24 28.27-31.5 30.44-21.08 2.47-37.88-.61-49.92-9.14l-6.63-4.7-2.66 26.14 2.48 1.57c12.07 7.63 32.01 9.57 44.42 9.57 2.02 0 3.85-.05 5.41-.14 28.86-1.61 62.73-17.13 63.22-55.58.43-33.51-26.48-46.9-50.21-58.72zm77.8-39.14h23.96V226.8h-23.96zm216.16-1.78c-15.77-.8-35.64 5.5-49.07 24.59-4.03-9.19-12.38-18.33-26.77-22.85-20.09-6.31-44.28.92-57 15.83l.42-14.58h-24.1v149.67h23.94l.36-76c0-14.57 4.23-34.64 13.51-44.25 9.79-10.14 23.35-14.07 34.51-10.01 9.47 3.45 15.38 12.17 16.21 23.93l.12.77c.9 3.76.83 8.35.74 13.67-.02 1.62-.05 3.27-.05 4.94l-.36 86.6h23.92l1.09-83.19c0-13.52 6.42-29.36 15.6-38.52 7.38-7.37 16.67-10.57 27.57-9.5 13.84 1.35 21.65 14.6 21.43 36.36v.22l.02.22c.28 3.38.42 7.08.42 10.97l-.36 83.78h24l-.36-89.68c.46-41.31-14.09-61.32-45.79-62.97zm172.88 86.72c0 8.09-.67 9.85-2.28 14.1-.64 1.71-1.41 3.73-2.28 6.49-.83 2.62-1.88 5.11-3.11 7.39a39.125 39.125 0 01-4.33 6.43c-1.65 1.99-3.43 3.76-5.29 5.25a30.597 30.597 0 01-5.88 3.69c-4.87 2.32-11.27 3.49-19.01 3.49-22.92 0-27.53-17.03-27.53-44.48l.36-86.75H702.5l.18 90.31c0 10.16 1.02 19.19 3.02 26.86 2.06 7.87 5.23 14.53 9.41 19.79 4.19 5.27 9.52 9.27 15.86 11.9 6.18 2.57 13.45 3.87 21.62 3.87 4.82 0 9.38-.56 13.57-1.66 10.67-2.81 22.45-6.68 29.84-17.03l-.8 15.97 24.39-.57.27-148.87-23.8-.29-.37 84.11zm60.13 65.59h23.97V8.77l-23.61 8zm85.22-197.7c-3.82-10.11-18.97-11.7-24.69-2.46-4.82 7.1-1.96 18.19 6.29 21.28h.01c11.63 4.75 23.23-7.34 18.39-18.82zm-25.21 48.85h23.96v149.53h-23.96zm144.54 99.44c-.24-1.3-.55-2.57-.91-3.79-.37-1.23-.81-2.43-1.31-3.57-.5-1.12-1.04-2.21-1.63-3.25a35.29 35.29 0 00-4.2-5.92c-.8-.92-1.65-1.8-2.54-2.63-.9-.84-1.85-1.67-2.85-2.48-.99-.79-2.02-1.57-3.09-2.32a68.458 68.458 0 00-7.01-4.27c-1.25-.66-2.54-1.32-3.85-1.96-1.35-.66-2.73-1.31-4.14-1.95-1.38-.63-2.83-1.26-4.35-1.9-1.47-.62-3.02-1.25-4.57-1.87l-12.56-5.27c-.89-.39-1.74-.8-2.56-1.21-.81-.41-1.61-.85-2.39-1.31-.77-.45-1.5-.91-2.18-1.37-.69-.46-1.33-.93-1.96-1.42a21.633 21.633 0 01-3.21-3.03c-.46-.54-.89-1.09-1.28-1.65-.34-.5-.66-1-.94-1.51l-.11-.21c-.59-1.15-1.04-2.47-1.35-3.9-.32-1.53-.48-3.23-.48-5.04 0-.7.04-1.4.12-2.08.08-.68.19-1.35.35-2.02a16.124 16.124 0 011.25-3.48l.11-.21c.31-.58.66-1.15 1.04-1.7.38-.56.79-1.08 1.23-1.59.44-.5.9-.99 1.42-1.46.46-.43.94-.83 1.45-1.22l.15-.11c.58-.43 1.19-.83 1.84-1.22.63-.38 1.3-.74 1.99-1.07.72-.35 1.45-.66 2.17-.94.78-.3 1.58-.57 2.4-.82.81-.25 1.65-.46 2.51-.64.89-.19 1.79-.34 2.72-.46.95-.12 1.91-.22 2.87-.28 4.31-.28 8.62 0 12.69.56 3.1.43 6.16 1.08 9.08 1.94 2.14.63 4.26 1.39 6.31 2.25 1.66.7 1.97.87 3.56 1.73l6.27 3.38 2.51-25.31-3.3-1.33c-2.05-.83-4.19-1.57-6.35-2.22-2.33-.69-4.74-1.29-7.16-1.76-2.76-.54-5.65-.96-8.58-1.23-4.55-.42-9.54-.55-14.22-.23-1.73.11-3.43.29-5.11.52-1.68.23-3.37.52-5.05.87-1.56.32-3.11.7-4.64 1.11l-.39.1c-1.65.46-3.26.97-4.81 1.54a55.672 55.672 0 00-8.85 4.12c-1.37.79-2.72 1.65-4.02 2.57-1.29.92-2.53 1.9-3.69 2.93-1.18 1.04-2.3 2.14-3.33 3.27a46.93 46.93 0 00-2.95 3.59 43.05 43.05 0 00-2.59 3.97 35.401 35.401 0 00-3.53 8.91c-.77 3.11-1.16 6.48-1.16 10 0 2.9.21 5.64.61 8.13.2 1.26.47 2.49.78 3.69.32 1.2.69 2.35 1.1 3.43.41 1.08.88 2.14 1.4 3.18.52 1.03 1.09 2.04 1.72 3.02s1.3 1.91 2.02 2.83c.72.91 1.49 1.79 2.32 2.64.83.87 1.71 1.71 2.62 2.51.91.8 1.87 1.58 2.89 2.33 1.01.75 2.08 1.49 3.2 2.21s2.28 1.4 3.47 2.06l.61.33c.99.54 2.03 1.09 3.12 1.65 1.32.68 2.65 1.33 4.01 1.97a186.166 186.166 0 008.89 3.91l12.58 5.21c.92.39 1.83.81 2.73 1.25.91.44 1.77.89 2.57 1.33.87.48 1.69.96 2.46 1.45s1.52.99 2.22 1.5c.7.51 1.37 1.04 2 1.58.6.52 1.18 1.07 1.72 1.64.54.57 1.06 1.16 1.54 1.78.47.59.89 1.21 1.29 1.85.39.62.73 1.28 1.02 1.98.28.66.53 1.39.73 2.16.2.78.35 1.58.45 2.41.1.86.15 1.75.15 2.66 0 3.28-.59 6.15-1.75 8.53-1.14 2.35-2.82 4.27-5.13 5.88-2.3 1.6-5.23 2.83-8.71 3.66-3.67.87-8.03 1.32-12.94 1.32-3.61 0-7.2-.3-10.68-.88a62.447 62.447 0 01-17.76-5.86c-.73-.37-1.1-.69-1.77-1.28-.67-.59-1.5-1.32-2.75-2.12l-6.79-4.38-1.72 27.66 2.79 1.41c5.31 2.69 10.28 4.45 16.09 5.73 6.08 1.33 12.7 2.01 19.66 2.01 1.87 0 3.71-.06 5.51-.16 1.84-.11 3.65-.27 5.42-.49 1.78-.22 3.56-.49 5.33-.82 1.76-.33 3.49-.71 5.17-1.14 1.7-.43 3.34-.92 4.94-1.47 1.61-.55 3.19-1.17 4.7-1.84a53.668 53.668 0 008.53-4.72 42.802 42.802 0 007.21-6.18c1.06-1.15 2.07-2.36 2.98-3.61.46-.62.9-1.26 1.32-1.92l1.48-2.43c.71-1.27 1.34-2.6 1.88-3.95.59-1.49 1.1-3.07 1.5-4.71.4-1.63.7-3.34.9-5.09.19-1.71.29-3.54.29-5.43 0-1.54-.06-3.02-.18-4.41-.16-1.47-.34-2.85-.58-4.15zm141.09-46l-.12-.96c-.63-4.94-1.59-9.64-2.85-13.97s-2.86-8.41-4.74-12.12c-1.91-3.76-4.16-7.25-6.71-10.39-5.1-6.29-11.37-11.07-18.63-14.22-7.16-3.11-15.45-4.69-24.61-4.69-4.62 0-9.11.46-13.34 1.35-4.26.9-8.38 2.28-12.27 4.09a58.84 58.84 0 00-11.14 6.84c-3.48 2.7-6.82 5.9-9.93 9.5l-.49.56c-2.91 3.45-5.51 7.2-7.72 11.13-2.34 4.14-4.3 8.61-5.86 13.28-1.56 4.66-2.73 9.67-3.51 14.87-.77 5.15-1.16 10.66-1.16 16.37 0 6.02.35 11.77 1.06 17.08.71 5.39 1.79 10.5 3.21 15.19 1.42 4.69 3.22 9.12 5.34 13.14 2.15 4.06 4.69 7.83 7.55 11.19 2.85 3.36 6.02 6.34 9.41 8.87 3.4 2.53 7.11 4.66 11.04 6.34 3.93 1.68 8.19 2.95 12.66 3.79 4.43.83 9.19 1.25 14.14 1.25 5.05 0 9.92-.29 14.47-.87 4.58-.58 8.98-1.47 13.07-2.65 3.84-1.1 7.5-2.48 10.89-4.1 3.3-1.58 6.45-3.42 9.34-5.49l1.98-1.42v-24.74l-7.45 5.17a73.177 73.177 0 01-6.82 4.22 67.375 67.375 0 01-8.1 3.72 62.147 62.147 0 01-10.81 2.99c-6.96 1.25-14.55 1.33-20.98.18-2.98-.53-5.83-1.34-8.47-2.4a37.356 37.356 0 01-7.4-4 38.328 38.328 0 01-6.32-5.61 39.674 39.674 0 01-5.05-7.04c-1.47-2.6-2.73-5.45-3.73-8.48-1.01-3.04-1.8-6.33-2.35-9.8-.49-3.09-1.22-10.68-1.43-15.22h97.78l.85-10.97.02-.37c-.01-5.24-.3-7.5-.82-11.61zm-25.61-.38v.83l-72.39.68c.12-1.46.3-2.87.53-4.24.47-2.78 1.19-5.44 2.14-7.93.92-2.43 2.1-4.76 3.49-6.93 1.32-2.05 2.87-4 4.57-5.76l.32-.32c1.87-1.89 3.87-3.56 5.92-4.96 2.05-1.39 4.23-2.56 6.48-3.48 2.25-.92 4.66-1.62 7.14-2.08 2.52-.47 5.22-.71 8-.71 5.52 0 10.44.8 14.62 2.38 4.01 1.52 7.47 3.83 10.28 6.86 1.43 1.54 2.71 3.27 3.79 5.14a32.9 32.9 0 012.77 6.2c.77 2.3 1.35 4.82 1.74 7.49l.08.57c.37 2.47.52 3.49.52 6.26z"/>
</svg>
