<svg xmlns="http://www.w3.org/2000/svg" viewBox="0 0 477 103"><path fill="#292929" d="M38.5 45c.504 0 1.005.014 1.502.04v13.037A14.68 14.68 0 0038.5 58c-6.94 0-12.74 4.874-14.165 11.386C30.604 72.048 35 78.261 35 85.5c0 9.665-7.835 17.5-17.5 17.5S0 95.165 0 85.5c0-7.444 4.648-13.803 11.2-16.332C12.845 55.552 24.441 45 38.501 45zm35.488 11.665a27.345 27.345 0 014.813 12.503c6.553 2.53 11.2 8.888 11.2 16.332 0 9.665-7.834 17.5-17.5 17.5-9.664 0-17.5-7.835-17.5-17.5 0-7.24 4.397-13.452 10.665-16.114a14.45 14.45 0 00-3.064-6.215 34.489 34.489 0 0010.741-5.965l.496-.413.149-.128zM17.501 78a7.5 7.5 0 100 15 7.5 7.5 0 000-15zm55-78c9.666 0 17.5 7.835 17.5 17.5 0 7.444-4.647 13.803-11.2 16.332C77.157 47.448 65.561 58 51.501 58c-.503 0-1.003-.014-1.5-.04V44.923c.493.051.994.077 1.5.077 6.94 0 12.74-4.874 14.165-11.386-6.268-2.662-10.664-8.875-10.664-16.114 0-9.665 7.835-17.5 17.5-17.5zM17.5 0C27.165 0 35 7.835 35 17.5c0 7.24-4.396 13.452-10.665 16.114A14.45 14.45 0 0027.4 39.83a34.5 34.5 0 00-11.237 6.378l-.148.128A27.345 27.345 0 0111.2 33.832C4.648 31.302 0 24.944 0 17.5 0 7.835 7.835 0 17.5 0zm55.002 10a7.5 7.5 0 100 15 7.5 7.5 0 000-15z" class="icon"/><path fill="#336586" d="M149.28 71.176c0 2.912-.56 5.637-1.68 8.176-1.12 2.539-2.763 4.76-4.928 6.664s-4.853 3.397-8.064 4.48c-3.21 1.083-6.87 1.624-10.976 1.624-2.837 0-5.768-.317-8.792-.952s-5.544-1.4-7.56-2.296a71.6 71.6 0 01.2-2.289l.08-.735c.112-.97.205-1.979.28-3.024a37.964 37.964 0 008.008 3.136c2.8.747 5.47 1.12 8.008 1.12 5.973 0 10.715-1.307 14.224-3.92 3.51-2.613 5.264-6.31 5.264-11.088 0-2.24-.336-4.181-1.008-5.824-.672-1.643-1.68-3.117-3.024-4.424-1.344-1.307-2.987-2.52-4.928-3.64l-1.818-1.038a353.283 353.283 0 00-4.79-2.658 342.74 342.74 0 01-7.952-4.312c-2.464-1.381-4.63-2.875-6.496-4.48-1.867-1.605-3.341-3.453-4.424-5.544-1.083-2.09-1.624-4.555-1.624-7.392 0-2.688.523-5.245 1.568-7.672 1.045-2.427 2.576-4.555 4.592-6.384 2.016-1.83 4.517-3.285 7.504-4.368 2.987-1.083 6.459-1.624 10.416-1.624 2.464 0 4.947.205 7.448.616l1.127.19c2.014.353 3.748.719 5.201 1.098a25.86 25.86 0 00-.25 2.294l-.03.562c-.037.933-.13 1.885-.28 2.856-1.792-.747-3.883-1.381-6.272-1.904-2.39-.523-4.89-.784-7.504-.784-5.973 0-10.416 1.381-13.328 4.144-2.912 2.763-4.368 6.197-4.368 10.304 0 2.24.392 4.163 1.176 5.768.784 1.605 1.867 3.043 3.248 4.312 1.381 1.27 3.024 2.464 4.928 3.584l1.46.854c1.49.868 3.076 1.778 4.756 2.73l2.657 1.406c1.75.93 3.46 1.842 5.127 2.738 2.501 1.344 4.704 2.837 6.608 4.48 1.904 1.643 3.416 3.528 4.536 5.656 1.12 2.128 1.68 4.648 1.68 7.56zm21.744-54.768c0 1.045-.392 1.96-1.176 2.744-.784.784-1.736 1.176-2.856 1.176-.97 0-1.83-.336-2.576-1.008-.747-.672-1.12-1.643-1.12-2.912 0-1.195.41-2.128 1.232-2.8.821-.672 1.717-1.008 2.688-1.008 1.12 0 2.035.336 2.744 1.008.71.672 1.064 1.605 1.064 2.8zM164.416 91V35.112h5.488V91h-5.488zM188.4 35.224h5.712c0 1.792-.056 3.659-.168 5.6l-.1 1.627a152.852 152.852 0 01-.292 3.749c.056 0 .091.01.105.031l.007.025c0 .037.037.056.112.056 1.643-3.733 4.07-6.72 7.28-8.96 3.21-2.24 7.056-3.36 11.536-3.36 2.987 0 5.47.448 7.448 1.344 1.979.896 3.565 2.016 4.76 3.36 1.195 1.344 2.072 2.8 2.632 4.368.56 1.568.915 3.024 1.064 4.368.597-1.643 1.456-3.285 2.576-4.928a18.659 18.659 0 014.088-4.312c1.605-1.232 3.453-2.24 5.544-3.024 2.09-.784 4.443-1.176 7.056-1.176 5.899 0 10.23 1.81 12.992 5.432 2.763 3.621 4.144 8.717 4.144 15.288V91h-5.6V56.28c0-2.763-.187-5.227-.56-7.392-.373-2.165-1.008-3.995-1.904-5.488-.896-1.493-2.147-2.65-3.752-3.472-1.605-.821-3.64-1.232-6.104-1.232-2.688 0-5.115.653-7.28 1.96s-3.995 3.136-5.488 5.488c-1.493 2.352-2.65 5.19-3.472 8.512-.821 3.323-1.232 7-1.232 11.032V91h-5.6V56.056c0-5.675-.933-9.987-2.8-12.936-1.867-2.95-5.115-4.424-9.744-4.424-2.763 0-5.227.653-7.392 1.96s-3.976 3.155-5.432 5.544c-1.456 2.39-2.576 5.264-3.36 8.624-.784 3.36-1.176 7.093-1.176 11.2V91h-5.6V35.224zM325.392 91h-5.712l.014-.924.154-4.956c.03-.986.072-1.923.125-2.813l.043-.659c.075-1.083.15-1.81.224-2.184l-.224-.112c-1.717 4.181-4.256 7.355-7.616 9.52-3.36 2.165-7.28 3.248-11.76 3.248-3.36 0-6.197-.523-8.512-1.568-2.315-1.045-4.181-2.52-5.6-4.424-1.419-1.904-2.445-4.219-3.08-6.944-.635-2.725-.952-5.73-.952-9.016V35.112h5.6v33.264c0 6.197.97 10.92 2.912 14.168 1.941 3.248 5.45 4.872 10.528 4.872 2.763 0 5.264-.56 7.504-1.68a17.345 17.345 0 005.768-4.648c1.605-1.979 2.837-4.368 3.696-7.168s1.288-5.88 1.288-9.24V35.112h5.6V91zM344 91V9.688l5.488-1.12V91H344zm30.704-74.592c0 1.045-.392 1.96-1.176 2.744-.784.784-1.736 1.176-2.856 1.176-.97 0-1.83-.336-2.576-1.008-.747-.672-1.12-1.643-1.12-2.912 0-1.195.41-2.128 1.232-2.8.821-.672 1.717-1.008 2.688-1.008 1.12 0 2.035.336 2.744 1.008.71.672 1.064 1.605 1.064 2.8zM368.096 91V35.112h5.488V91h-5.488zm54.112-14.896c0 2.016-.448 3.995-1.344 5.936-.896 1.941-2.203 3.659-3.92 5.152-1.717 1.493-3.901 2.688-6.552 3.584-2.65.896-5.693 1.344-9.128 1.344-2.464 0-4.89-.28-7.28-.84-2.39-.56-4.256-1.176-5.6-1.848l.112-1.54c.037-.504.075-.999.112-1.484.075-.97.187-1.979.336-3.024 1.717 1.195 3.808 2.147 6.272 2.856 2.464.71 4.779 1.064 6.944 1.064 4.63 0 8.176-1.008 10.64-3.024 2.464-2.016 3.696-4.592 3.696-7.728 0-2.09-.69-3.845-2.072-5.264-1.381-1.419-3.117-2.65-5.208-3.696a99.79 99.79 0 00-6.832-3.08 48.589 48.589 0 01-6.832-3.416c-2.09-1.27-3.827-2.819-5.208-4.648-1.381-1.83-2.072-4.163-2.072-7 0-4.704 1.792-8.456 5.376-11.256 3.584-2.8 8.363-4.2 14.336-4.2 2.165 0 4.293.243 6.384.728 2.09.485 3.845 1.027 5.264 1.624l-.224 2.688c-.075.896-.15 1.83-.224 2.8-1.717-.97-3.621-1.736-5.712-2.296-2.09-.56-4.219-.84-6.384-.84-4.256 0-7.504.933-9.744 2.8-2.24 1.867-3.36 4.33-3.36 7.392 0 2.315.69 4.2 2.072 5.656 1.381 1.456 3.117 2.725 5.208 3.808a56.79 56.79 0 006.018 2.666l.814.302a38.46 38.46 0 016.832 3.248c2.09 1.27 3.827 2.8 5.208 4.592 1.381 1.792 2.072 4.107 2.072 6.944zm33.504-42.112c3.808 0 7.075.69 9.8 2.072 2.725 1.381 4.928 3.23 6.608 5.544 1.68 2.315 2.912 5.003 3.696 8.064a38.222 38.222 0 011.176 9.52v1.232c0 .448-.037.97-.112 1.568h-39.536v1.232c0 7.99 1.699 14 5.096 18.032 3.397 4.032 8.27 6.048 14.616 6.048 3.136 0 6.123-.467 8.96-1.4a30.51 30.51 0 007.952-3.976c.1.597.19 1.195.274 1.792l.118.896c.112.896.243 1.755.392 2.576-2.464 1.419-5.264 2.595-8.4 3.528-3.136.933-6.608 1.4-10.416 1.4-3.659 0-6.981-.56-9.968-1.68a19.829 19.829 0 01-7.728-5.208c-2.165-2.352-3.845-5.357-5.04-9.016-1.195-3.659-1.792-8.064-1.792-13.216 0-3.957.56-7.69 1.68-11.2 1.12-3.51 2.707-6.59 4.76-9.24a22.177 22.177 0 017.616-6.272c3.024-1.53 6.44-2.296 10.248-2.296zm-.336 4.592c-2.464 0-4.704.467-6.72 1.4a16.935 16.935 0 00-5.32 3.864c-1.53 1.643-2.763 3.621-3.696 5.936-.933 2.315-1.587 4.816-1.96 7.504h33.376c-.075-5.899-1.493-10.49-4.256-13.776-2.763-3.285-6.57-4.928-11.424-4.928z" class="text"/></svg>
