<svg xmlns="http://www.w3.org/2000/svg" viewBox="0 0 222.81 254.3">
    <g class="logo-icon">
        <path class="logo-icon-tr" d="M125.31 112.82h.94c10.74-.03 20.59-3.95 28-10.55a39.59 39.59 0 0011.95-19.35c-15.92-5.95-27.25-21.29-27.25-39.28 0-23.16 18.77-41.93 41.93-41.93s41.93 18.77 41.93 41.93c0 17.09-10.23 31.8-24.9 38.32-2.39 17.52-10.82 32.6-23.04 43.48-12.86 11.46-29.96 18.25-48.62 18.31h-.94v-30.93zm55.58-89.55c-11.25 0-20.36 9.12-20.36 20.36S169.64 64 180.89 64s20.36-9.12 20.36-20.36-9.12-20.37-20.36-20.37z"/>
        <path class="logo-icon-br" d="M179.86 254.3c-23.16 0-41.93-18.77-41.93-41.93 0-17.63 10.89-32.72 26.31-38.92-1.47-6.54-4.08-12.49-8.51-18.41 9.83-2.52 19.09-7.86 28.24-14.72 6.57 9.49 10.56 21.4 12.11 33.37 15.1 6.34 25.71 21.27 25.71 38.67 0 23.17-18.78 41.94-41.93 41.94z"/>
        <path class="logo-icon-bl" d="M57.42 173.4c15.49 6.16 26.43 21.29 26.43 38.97 0 23.16-18.77 41.93-41.93 41.93C18.77 254.3 0 235.53 0 212.37c0-17.41 10.61-32.34 25.72-38.68 1.68-9.9 4.82-18.54 9.05-26.04 5.84-10.33 13.62-18.29 22.46-24.19 14.2-9.48 27.54-11.69 40.53-11.78v31.07c-8.17.2-16.11 1.62-23.31 6.42-5.08 3.39-9.5 7.88-12.76 13.64-1.75 3.11-3.2 6.63-4.27 10.59zm-15.49 18.61c-11.25 0-20.36 9.12-20.36 20.36 0 11.25 9.12 20.36 20.36 20.36 11.25 0 20.36-9.12 20.36-20.36s-9.12-20.36-20.36-20.36z"/>
        <path class="logo-icon-tl" d="M42.61 0c23.16 0 41.93 18.77 41.93 41.93 0 17.63-10.89 32.72-26.31 38.92 1.47 6.54 4.08 12.49 8.51 18.41-9.83 2.52-19.09 7.86-28.24 14.72-6.57-9.49-10.56-21.4-12.11-33.37C11.29 74.26.68 59.33.68 41.93.68 18.77 19.46 0 42.61 0z"/>
    </g>
</svg>
