<svg xmlns="http://www.w3.org/2000/svg" viewBox="0 0 90 103"><path fill="#292929" d="M38.5 45c.504 0 1.005.014 1.502.04v13.037A14.68 14.68 0 0038.5 58c-6.94 0-12.74 4.874-14.165 11.386 6.269 2.662 10.665 8.875 10.665 16.114 0 9.665-7.835 17.5-17.5 17.5S0 95.165 0 85.5c0-7.444 4.648-13.803 11.2-16.332C12.845 55.552 24.441 45 38.501 45zm35.488 11.665a27.345 27.345 0 014.813 12.503c6.553 2.53 11.2 8.888 11.2 16.332 0 9.665-7.834 17.5-17.5 17.5-9.664 0-17.5-7.835-17.5-17.5 0-7.24 4.397-13.452 10.665-16.114a14.45 14.45 0 00-3.064-6.215 34.489 34.489 0 0010.741-5.965l.496-.413.149-.128zM17.501 78a7.5 7.5 0 100 15 7.5 7.5 0 000-15zm55-78c9.666 0 17.5 7.835 17.5 17.5 0 7.444-4.647 13.803-11.2 16.332C77.157 47.448 65.561 58 51.501 58c-.503 0-1.003-.014-1.5-.04V44.923c.493.051.994.077 1.5.077 6.94 0 12.74-4.874 14.165-11.386-6.268-2.662-10.664-8.875-10.664-16.114 0-9.665 7.835-17.5 17.5-17.5zM17.5 0C27.165 0 35 7.835 35 17.5c0 7.24-4.396 13.452-10.665 16.114A14.45 14.45 0 0027.4 39.83a34.5 34.5 0 00-11.237 6.378l-.148.128A27.345 27.345 0 0111.2 33.832C4.648 31.302 0 24.944 0 17.5 0 7.835 7.835 0 17.5 0zm55.002 10a7.5 7.5 0 100 15 7.5 7.5 0 000-15z"/></svg>
